<svg width="640" height="640" viewBox="0 0 640 640" fill="none" xmlns="http://www.w3.org/2000/svg">
  <rect width="640" height="640" rx="320" fill="url(#bg)"/>
  <circle cx="320" cy="260" r="140" fill="#F8FAFC"/>
  <path d="M186 530C214 426 270 368 320 368C370 368 426 426 454 530" fill="#0F766E"/>
  <path d="M238 236C238 188 272 154 320 154C368 154 402 188 402 236C402 284 368 318 320 318C272 318 238 284 238 236Z" fill="#F59E0B"/>
  <path d="M250 226C250 194 276 168 308 168H332C364 168 390 194 390 226V240H250V226Z" fill="#0F172A"/>
  <path d="M260 246C260 214 286 188 318 188H322C354 188 380 214 380 246V270H260V246Z" fill="#111827"/>
  <path d="M222 522C260 442 296 410 320 410C344 410 380 442 418 522" stroke="#0EA5E9" stroke-width="16" stroke-linecap="round"/>
  <circle cx="276" cy="250" r="10" fill="#111827"/>
  <circle cx="366" cy="250" r="10" fill="#111827"/>
  <path d="M282 304C296 318 324 318 338 304" stroke="#111827" stroke-width="10" stroke-linecap="round"/>
  <defs>
    <linearGradient id="bg" x1="102" y1="74" x2="560" y2="584" gradientUnits="userSpaceOnUse">
      <stop stop-color="#D1FAE5"/>
      <stop offset="1" stop-color="#DBEAFE"/>
    </linearGradient>
  </defs>
</svg>
